<?xml version="1.0" encoding="utf-8"?>
<!-- Generator: Adobe Illustrator 26.0.2, SVG Export Plug-In . SVG Version: 6.00 Build 0)  -->
<svg version="1.1"
	 id="svg5" xmlns:inkscape="http://www.inkscape.org/namespaces/inkscape" xmlns:sodipodi="http://sodipodi.sourceforge.net/DTD/sodipodi-0.dtd" xmlns:svg="http://www.w3.org/2000/svg"
	 xmlns="http://www.w3.org/2000/svg" xmlns:xlink="http://www.w3.org/1999/xlink" x="0px" y="0px" viewBox="0 0 2989.5 512"
	 style="enable-background:new 0 0 2989.5 512;" xml:space="preserve">
<style type="text/css">
	.st0{fill-rule:evenodd;clip-rule:evenodd;}
</style>
<path id="svg-def-title-2" class="st0" d="M302.2,212.6l60.2-71.3H0v71.3h145.5v218.2H0v71.3h362.3v-71.3H216.8V212.6H302.2z
	 M1684.3,239.2v-81.1l-258.8,92.3v81.1l109.1-39.2V470h71.3V267.2h-2.8L1684.3,239.2z M837.9,138.5h-71.3v363.7h71.3V324.5
	l215.4,68.5v-71.3l-215.4-68.5V138.5z M390.3,56h43.4V33.6h-43.4v-28h-21v28h-43.4V56h43.4c0.6,9.8-1.8,19.6-7,28
	c-7.6,8.4-17.2,14.7-28,18.2l15.4,18.2c12-4.7,22.6-12.4,30.8-22.4C389,85.7,392.5,70.7,390.3,56 M979.2,212.6h74.1v-71.3h-74.1
	V212.6z M674.3,334.3l-291,86.7v81.1l362.3-107.7v-256h-71.3V334.3z M1407.3,138.5h-332.9v72.7h253.2
	c-29,83.2-89.2,151.9-167.9,191.7v100.7c89.5-35,228-125.9,282.6-365.1H1407.3z M541.4,99.3l14,18.2c20.7-8.6,39.3-21.4,54.6-37.8
	c12.9-20.2,20.6-43.3,22.4-67.1L608.5,7c0,0,0,42-16.8,60.2C577.4,81.2,560.2,92.2,541.4,99.3 M412.7,159.5v72.7l194.4,61.6v-71.3
	l-96.5-30.8L412.7,159.5z M956.9,141.3h-74.1v71.3h74.1V141.3z M573.6,54.6l21-8.4c-1.5-16-7.8-31.1-18.2-43.4l-21,8.4
	C566.6,22.9,573,38.4,573.6,54.6 M2488.7,139.9h-74.1v71.3h74.1V139.9z M544.2,65.7l21-9.8c-1.3-15.6-7.7-30.4-18.2-42l-21,7
	C537.4,33.1,543.9,49.1,544.2,65.7 M260.2,40.6h33.6c-9.8,43.4-64.3,58.8-64.3,58.8l14,19.6c17.6-6.6,33.8-16.6,47.6-29.4
	c14.7-17.1,24.3-37.9,28-60.2l-11.2-11.2h-36.4l5.6-9.8L256,0c-7.2,21.4-20.9,40-39.2,53.2l15.4,16.8
	C242.8,61.5,252.3,51.6,260.2,40.6 M100.7,69.9h111.9V49H100.7V69.9z M0,102.1l16.8,16.8c11.6-8.3,21.6-18.8,29.4-30.8
	C54.2,69.6,58,49.6,57.4,29.4h26.6L56,56l18.2,15.4L118.9,21l-14-12.6H2.8v21H35c1.5,10.8,0.6,21.8-2.8,32.2
	C28.3,79.3,16.4,94.3,0,102.1 M435.1,85.3c12.8-5.1,25-11.7,36.4-19.6v50.4h21V49c12.4-9.5,23.2-20.8,32.2-33.6l-16.8-14
	c-21.5,28.8-50.5,51.1-83.9,64.3L435.1,85.3 M1667.5,285.4v71.3h221l61.6-71.3H1667.5z M2674.7,437.9h-4.2l-11.2,19.6h9.8v-2.8
	l25.2-16.8l-11.2-8.4L2674.7,437.9z M2634.1,370.7h-1.4v2.8h1.4V370.7z M2634.1,363.7h-1.4v2.8h1.4V363.7z M2648.1,363.7h-4.2v2.8
	h4.2V363.7z M2648.1,369.3h-4.2v2.8h4.2V369.3z M2708.3,425.3l12.6-8.4h-26.6L2708.3,425.3z M2617.4,512h372.1V138.5h-372.1V512z
	 M2702.7,369.3v-7h5.6v-2.8h5.6l-2.8,2.8h8.4v8.4h2.8v2.8h-2.8v7c0,1.4,0,2.8-1.4,2.8h-4.2c-0.8-0.7-1.3-1.7-1.4-2.8h2.8v-7h-9.8
	c0.2,4.1-1.3,8.2-4.2,11.2l-2.8-2.8c2.2-2.2,3.3-5.3,2.8-8.4h-2.8v-2.8h4.2L2702.7,369.3z M2711.1,380.5l-4.2-4.2l2.8-2.8l4.2,4.2
	L2711.1,380.5z M2674.7,366.5v-2.8h11.2c0-1.4-1.4-2.8-1.4-4.2h4.2v4.2h8.4v2.8h-11.2v2.8h11.2c-1.4,7-1.4,9.8-2.8,11.2h-7v-2.8h5.6
	c0.8-2.3,1.2-4.6,1.4-7h-8.4c-0.3,4.7-2.9,8.9-7,11.2c0-1.4-1.4-2.8-2.8-4.2c5-2.8,7.7-8.3,7-14L2674.7,366.5z M2653.7,360.9h19.6
	v22.4h-19.6V360.9z M2639.7,359.5h11.2v21c0,1.4,0,2.8-1.4,2.8h-4.2c0-1.4-1.4-2.8-1.4-4.2h4.2v-2.8h-5.6c-0.3,3.2-1.8,6.2-4.2,8.4
	c0-1.5-1.3-2.8-2.8-2.8c4.2-2.8,4.2-8.4,4.2-12.6V359.5z M2628.5,360.9h9.8v15.4h-5.6v2.8h-4.2V360.9z M2627.1,426.7l21-37.8h22.4
	l-29.4,56h-14V426.7z M2676.1,495.2l-49,9.8v-16.8l49-9.8V495.2z M2983.9,505h-58.8l-18.2-8.4v-9.8l0,0v-35l-9.8,2.8v-19.6h-5.6
	v23.8l11.2-2.8v25.2l-39.2,14v9.8l-47.6-33.6V505h-22.4v-33.6l-47.6,33.6h-29.4l-39.2-29.4l14-11.2l40.6,28l61.6-43.4v-2.8h-37.8
	v-18.2h37.8v-11.2h-49v4.2l-21,15.4l23.8,15.4v21l-39.2-26.6l-35,25.2v2.8l-46.2,9.8v-7l39.2-65.7h7l16.8-22.4h21l-7,9.8h89.5v-9.8
	h22.4v9.8h49v18.2h5.6v-22.4h21v22.4h11.2v14h4.2v-28h21v19.6h4.2v-33.6h21v22.4l25.2-9.8V463l-21,8.4v-39.2h-4.2v40.6l-21,8.4
	v-39.2h-4.2v43.4h56L2983.9,505z M2694.3,461.6l14-11.2l21,14v22.4L2694.3,461.6z M2862.2,416.9H2816v11.2h37.8v18.2H2816v2.8
	l43.4,30.8v-8.4l11.2-4.2v-32.2h-8.4V416.9z M2511,211.2h74.1v-71.3H2511V211.2z M2369.7,138.5h-71.3v362.3h71.3V324.5l215.4,67.1
	v-71.3l-215.4-68.5V138.5z M2669.1,373.5h-11.2v4.2h11.2L2669.1,373.5z M2070.4,138.5h-72.7c0,0-1.4,107.7-1.4,191.7
	s-85.3,85.3-85.3,85.3v83.9c162.3-22.4,159.5-144.1,159.5-144.1V138.5z M2176.7,411.3V138.5H2104v330.1l0,0v32.2
	c131.5-16.8,169.3-90.9,169.3-90.9v-83.9C2246.8,360.3,2214,389.3,2176.7,411.3 M2711.1,370.7h4.2v-5.6h-5.6l4.2,2.8L2711.1,370.7z
	 M2669.1,365.1h-11.2v4.2h11.2L2669.1,365.1z M2706.9,367.9l2.8-2.8h-4.2v4.2h5.6l-4.2-2.8"/>
</svg>
