<?xml version="1.0" encoding="utf-8"?>
<!-- Generator: Adobe Illustrator 26.0.2, SVG Export Plug-In . SVG Version: 6.00 Build 0)  -->
<svg version="1.1"
	 id="svg5" xmlns:inkscape="http://www.inkscape.org/namespaces/inkscape" xmlns:sodipodi="http://sodipodi.sourceforge.net/DTD/sodipodi-0.dtd" xmlns:svg="http://www.w3.org/2000/svg"
	 xmlns="http://www.w3.org/2000/svg" xmlns:xlink="http://www.w3.org/1999/xlink" x="0px" y="0px" viewBox="0 0 1648.2 512"
	 style="enable-background:new 0 0 1648.2 512;" xml:space="preserve">
<style type="text/css">
	.st0{fill-rule:evenodd;clip-rule:evenodd;}
</style>
<path id="svg-def-title-2" class="st0" d="M247.5,52.4h12.2c-0.8,10.3-5.7,19.9-13.4,26.8c3.8,2.2,7.1,5.1,9.8,8.5
	c9.7-9.4,15.7-21.9,17.1-35.4H306v20.7h-11c1.8,4.3,3,8.8,3.7,13.4l15.8-1.2c3.6-2.9,5.5-7.6,4.9-12.2V52.4h11V40.2h-11v-28h-26.8
	l6.1-9.8h-17.1c-0.2,3.8-1,7.5-2.4,11h-18.3V39h-13.4V52.4z M306,23.2v17.1h-13.4l7.3-6.1c-4-4.2-8.5-7.9-13.4-11H306z M273.1,39
	V23.2h13.4l-8.5,7.3l12.2,9.8h-17.1V39z M165.8,76.8c3.9,3,7.2,6.8,9.8,11c13.5-8.4,22.8-22.1,25.6-37.8h25.6c0.3,8-1.4,16-4.9,23.2
	h-19.5c2.7,4,4.3,8.6,4.9,13.4h15.8l11-4.9c3.7-4.9,6.1-14.6,7.3-39v-4.9h-39c0-3.7,1.2-6.1,1.2-9.8h45.1V15.8h-36.6l6.1-2.4
	c-1.5-4.7-3.6-9.2-6.1-13.4l-13.4,4.9c2.1,3.4,3.8,7.1,4.9,11H167V28H189C187.7,46.3,186.5,65.8,165.8,76.8 M108.5,80.5h36.6v6.1
	h14.6V6.1H93.9v80.5h14.6V80.5z M108.5,19.5h36.6v17.1h-36.6V19.5z M108.5,50h36.6V67h-36.6V50z M285.3,320.6l-52.4,39l124.3,87.8
	v-76.8L285.3,320.6z M1241,101.2V445h-193.8V295l17.1-6.1v140.2l70.7-29.3V262.1l18.3-7.3V395l70.7-30.5V151.2l-89,34.1v-82.9h-70.7
	v109.7l-17.1,7.3v-71.9h-69.5v98.7l-17.1,6.1v-51.2h-39v-78h-70.7v78h-23.2v-59.7H657.1v-39h-78v39H267l26.8-36.6h-75.6l-70.7,96.3
	v-18.3h-29.3L1.2,337.7v50h160.9l119.5-84.1l137.8,93.9v-73.1l-86.6-56.1l74.4-51.2v-12.2H579v39H447.4v61H579V317L364.5,465.7
	l-139-95.1l-51.2,37.8h-28v100h62.2V434l106.1,74.4h100L579,392.5v115.8h78V392.5L825.3,512v-37.8l135.3-50v-87.8l-39,14.6v-87.8
	h20.7v71.9l35.4-13.4v156l59.7,30.5h610.7V101.2L1241,101.2z M149.9,321.8h-47.5l34.1-47.5h31.7l24.4-32.9l36.6,25.6L149.9,321.8z
	 M279.2,231.6l-43.9-28h85.3L279.2,231.6z M850.9,376.7l-41.4,15.8V423L657.1,317v-12.2h131.7v-62.2H657.1v-39H818v59.7h32.9
	L850.9,376.7z M1603,380.3c7.9-0.8,15.3,4.4,17.1,12.2l-9.8,2.4c-1-3.3-3.9-5.7-7.3-6.1c-3.7,0-4.9,2.4-4.9,3.7s3.7,3.7,9.8,6.1
	s13.4,6.1,13.4,13.4c0,7.3-7.3,13.4-18.3,13.4c-8,0.1-15.3-4.8-18.3-12.2l9.8-3.7c1.5,4.2,5.3,7.1,9.8,7.3c3.7,0,4.9-2.4,4.9-3.7
	c0-1.2-4.9-4.9-11-7.3c-6.1-2.4-11-4.9-11-12.2c0.6-8.1,7.7-14.1,15.7-13.4C1603,380.3,1603,380.3,1603,380.3 M1509.2,381.6h11v17.1
	h15.8v-17.1h11v43.9h-11v-17.1h-15.8v17.1h-11L1509.2,381.6z M1445.8,381.6h11v43.9h-11V381.6z M1399.5,381.6h9.8l9.8,12.2l9.8,13.4
	l0,0v-25.6h9.8v43.9h-9.8l-8.5-12.2l-9.8-14.6l0,0v26.8h-11L1399.5,381.6z M1316.6,381.6h17.1c11,0,17.1,6.1,17.1,14.6
	c0.4,5.2-2.5,10.1-7.3,12.2l9.8,17.1H1341l-8.5-14.6h-4.9v14.6h-11L1316.6,381.6z M1288.5,381.6h9.8l18.3,43.9h-12.2l-2.4-7.3h-17.1
	l-2.4,7.3h-11L1288.5,381.6z M1309.3,487.6h-39v-52.4h37.8v12.2h-25.6v8.5h20.7v11h-20.7v8.5h26.8V487.6z M1362.9,487.6h-12.2
	L1341,473l-12.2-15.8l0,0v30.5h-12.2v-52.4h11l11,14.6l12.2,15.8l0,0v-30.5h12.2V487.6z M1366.6,410.8v14.6h-9.8v-43.9h9.8v15.8l0,0
	l6.1-6.1l11-9.8h13.4l-19.5,18.3l19.5,25.6h-13.4l-13.4-18.3L1366.6,410.8z M1393.4,487.6h-21.9v-52.4h21.9
	c14.1-0.7,26.1,10.2,26.8,24.3c0,0.8,0,1.7,0,2.5c0.7,13.4-9.6,24.9-23,25.7C1395.9,487.8,1394.6,487.7,1393.4,487.6 M1461.6,447.4
	h-24.4v9.8h19.5v11h-19.5v19.5h-12.2v-52.4h36.6V447.4z M1478.7,487.6h-12.2v-52.4h12.2V487.6z M1460.4,403.5
	c-0.7-12.1,8.6-22.5,20.7-23.1c0.4,0,0.8,0,1.3,0c8.2,0.3,15.9,4.3,20.7,11l-11,3.7c-2.5-2.8-6-4.6-9.8-4.9c-7.3,0-11,6.1-11,13.4
	c-0.7,6,3.6,11.5,9.6,12.2c0.9,0.1,1.7,0.1,2.6,0c5,0.8,9.8-2.4,11-7.3h-11v-8.5h20.7v25.6h-9.8v-3.7l0,0c-3.5,2.6-7.8,3.9-12.2,3.7
	c-11.4,0.7-21.2-8-21.9-19.4C1460.4,405.2,1460.4,404.3,1460.4,403.5 M1526.2,487.6h-39v-52.4h37.8v12.2h-25.6v8.5h20.7v11h-20.7
	v8.5h26.8V487.6z M1570.1,487.6h-36.6v-52.4h12.2v40.2h24.4V487.6z M1572.6,425.4h-9.8v-34.1h-13.4v-9.8h36.6v9.8h-13.4V425.4z
	 M1597,487.6h-23.2v-52.4h23.2c14.8,0,26.8,12,26.8,26.8c0,14.1-11.4,25.6-25.6,25.6C1597.8,487.6,1597.4,487.6,1597,487.6
	 M276.7,61l15.8,12.2l8.5-7.3c-4.1-5.4-9.6-9.6-15.8-12.2L276.7,61z M1597,447.4h-11v28h11c6.7,0.7,12.7-4.1,13.4-10.8
	c0.1-0.9,0.1-1.7,0-2.6c0.7-7.4-4.8-13.9-12.1-14.6C1597.8,447.4,1597.4,447.4,1597,447.4 M0,508.3h62.2v-100H0V508.3z
	 M1295.8,399.8l-2.4-6.1l0,0l-2.4,6.1l-2.4,8.5h11L1295.8,399.8z M73.1,508.3h62.2v-100H73.1V508.3z M1339.7,396.2
	c0-2.7-2.2-4.9-4.9-4.9l0,0h-7.3v9.8h7.3C1337.6,401.1,1339.7,398.9,1339.7,396.2L1339.7,396.2 M1393.4,447.4h-9.8v28h9.8
	c7.4,0.7,13.9-4.8,14.6-12.1c0-0.4,0.1-0.8,0.1-1.3C1408,453.9,1401.5,447.4,1393.4,447.4 M152.4,104.8H70.7L1.2,197.5v82.9h19.5
	L152.4,104.8z M30.5,79.2c4.2,2.1,7.9,5,11,8.5c7.9-7.9,13.1-18.2,14.6-29.3h15.8v14.6H58.5c2.7,4,4.3,8.6,4.9,13.4l17.1-1.2
	c3.6-2.9,5.5-7.6,4.9-12.2V4.9H45.1v32.9C46.9,53.1,41.5,68.4,30.5,79.2 M58.5,17.1h13.4v9.8H58.5V17.1z M58.5,37.8h13.4v9.8H57.3
	C58.3,44.4,58.7,41.1,58.5,37.8 M18.3,62.2h19.5V6.1H6.1v63.4h12.2L18.3,62.2z M18.3,18.3h7.3V28h-7.3L18.3,18.3z M18.3,40.2h7.3V50
	h-7.3L18.3,40.2z"/>
</svg>
