<?xml version="1.0" encoding="utf-8"?>
<!-- Generator: Adobe Illustrator 26.0.2, SVG Export Plug-In . SVG Version: 6.00 Build 0)  -->
<svg version="1.1"
	 id="svg5" inkscape:version="1.2.2 (b0a8486541, 2022-12-01)" xmlns:inkscape="http://www.inkscape.org/namespaces/inkscape" xmlns:sodipodi="http://sodipodi.sourceforge.net/DTD/sodipodi-0.dtd" xmlns:svg="http://www.w3.org/2000/svg"
	 xmlns="http://www.w3.org/2000/svg" xmlns:xlink="http://www.w3.org/1999/xlink" x="0px" y="0px" viewBox="0 0 3088 512"
	 style="enable-background:new 0 0 3088 512;" xml:space="preserve">
<style type="text/css">
	.st0{fill-rule:evenodd;clip-rule:evenodd;}
</style>
<path id="svg-def-title-2" class="st0" d="M1162.3,508.4h87.4V348h196.8v-91.1h-196.8v-60.1H1452v-91.1h-289.7V508.4z M2067.8,38.3
	c-4.2-0.3-8.1-2.3-10.9-5.5l-7.3,7.3c4.9,4.8,11.4,7.4,18.2,7.3c12.8,0,20-7.3,20-14.6s-3.6-9.1-10.9-12.8h-5.5
	c-5.5-1.8-7.3-1.8-7.3-5.5s1.8-3.6,5.5-3.6l10.9,3.6l5.5-7.3c-4.7-3.7-10.5-5.6-16.4-5.5c-10.9,0-18.2,5.5-18.2,14.6
	s5.5,9.1,10.9,10.9l5.5,3.6c5.5,1.8,7.3,1.8,7.3,5.5c0,3.6-1.8,3.6-7.3,3.6 M1114.9,205.9c-4.7-14.6-12.1-28.2-21.9-40.1
	c-10.8-12.4-23-23.4-36.4-32.8c-16.5-9.8-34.3-17.1-52.8-21.9c-23.3-5.3-47.2-7.8-71.1-7.3H746.9v404.4h185.8
	c28.4-0.2,56.6-4.5,83.8-12.8c20.6-7.5,39.8-18.6,56.5-32.8c14.5-12.7,26.2-28.2,34.6-45.5c8.5-16.7,14.6-34.5,18.2-52.8
	c3.1-17.4,4.3-35.1,3.6-52.8v-16.4c0.8-15.3-0.5-30.6-3.6-45.5C1124,234.7,1120.3,220,1114.9,205.9 M1038.4,306.1
	c0,69.2-38.3,103.8-113,103.8H746.9l87.4-87.4V198.6h91.1c74.7,0,113,34.6,113,103.8V306.1z M1486.6,0.1h-12.8v47.4h12.8V0.1z
	 M1639.6,42V20.1h-18.2v9.1h7.3v7.3c0,1.8-3.6,1.8-5.5,1.8s-12.8-5.5-12.8-14.6c-1-7,3.8-13.4,10.8-14.4c0.6-0.1,1.3-0.1,2-0.1
	l9.1,3.6l7.3-7.3c-4.9-3.2-10.6-5.1-16.4-5.5c-13-1-24.4,8.8-25.4,21.8c0,0.6-0.1,1.3-0.1,1.9c-1.2,12,7.6,22.7,19.6,23.9
	c2,0.2,3.9,0.1,5.9-0.2C1629.2,47.9,1635.1,46,1639.6,42 M1484.8,508.4h87.4V226h-85.6l85.6-85.6v-34.6h-87.4V508.4z M1182.4,34.7
	l5.5-7.3l10.9,20h14.6l-18.2-27.3l14.6-20h-12.8l-14.6,18.2l0,0V0.1h-12.8v47.4h12.8V34.7z M87.4,348h204v-92.9h-204V195h162.1
	l45.5-45.5v-45.5H0v404.4h298.8v-94.7H87.4V348z M881.8,36.5h14.6l3.6,10.9h12.8L896.3,0.1h-14.6l-16.4,47.4h12.8L881.8,36.5z
	 M885.4,23.8c0.6-5,1.8-9.9,3.6-14.6l0,0c1.8,5.5,1.8,10.9,3.6,14.6v3.6h-10.9L885.4,23.8z M1031.1,31h5.5l10.9,16.4h12.8
	l-10.9-18.2c5.5-2.8,9.1-8.4,9.1-14.6c0-10.9-9.1-14.6-20-14.6h-18.2v47.4h10.9V31z M1031.1,9.2h5.5c5.5,0,9.1,1.8,9.1,5.5
	s-3.6,7.3-9.1,7.3h-5.5V9.2z M1331.7,31c0-5.5-1.8-10.9-1.8-16.4l0,0l5.5,9.1l12.8,23.7h12.8V0.1h-12.8v16.4
	c0,5.5,1.8,10.9,1.8,16.4l0,0l-5.5-10.9l-12.8-21.9h-10.9v47.4h10.9V31z M1703.4,348h204v-92.9h-204V195h164l45.5-45.5v-45.5h-297
	v404.4h300.6v-94.7h-213.2V348z M615.8,359L437.2,105.7h-98.4v402.6h85.6V240.6l191.3,267.8l85.6-87.4V105.7h-85.6V359z
	 M1763.5,27.4h18.2v20h10.9V0.1h-10.9v18.2h-18.2V0.1h-10.9v47.4h10.9V27.4z M2698.1,357.1h-1.8v3.6h1.8V357.1z M2714.5,349.9h-5.5
	v3.6h5.5V349.9z M2698.1,349.9h-1.8v3.6h1.8V349.9z M2714.5,357.1L2714.5,357.1z M2743.6,430h-5.5l-10.9,21.9h9.1l27.3-20l-12.8-7.3
	L2743.6,430z M2679.9,512H3088V103.9h-408.1V512z M2772.8,357.1V348h7.3v-3.6h5.5c-0.1,1.4-0.8,2.7-1.8,3.6h9.1v9.1h1.8v3.6h-1.8
	v7.3c0,1.8-1.8,1.8-1.8,3.6h-5.5v-3.6h3.6v-7.3h-10.9c-0.1,3.9-1.4,7.7-3.6,10.9h-5.5c1.8-3.6,3.6-5.5,3.6-9.1h-3.6V359
	L2772.8,357.1z M2783.7,368.1l-5.5-3.6l3.6-3.6l3.6,3.6L2783.7,368.1z M2743.6,353.5v-3.6h10.9v-3.6h3.6c0.1,1.4,0.8,2.7,1.8,3.6
	h9.1v3.6h-14.6v3.6h12.8c0,4.3-0.6,8.6-1.8,12.8h-9.1c0-1.8,0-3.6-1.8-3.6h7.3c0-2.5,0.6-5.1,1.8-7.3h-9.1
	c-1.8,3.6-3.6,9.1-9.1,10.9c-1.1-0.9-1.7-2.2-1.8-3.6c4.8-3.2,7.6-8.8,7.3-14.6L2743.6,353.5z M2720,346.2h21.9v25.5H2720V346.2z
	 M2705.4,346.2h12.8v21.9c0,1.8,0,1.8-1.8,3.6h-5.5v-3.6h5.5v-5.5h-5.5c-1.8,3.6-1.8,7.3-5.5,9.1h-3.6c4.2-2.8,6.3-7.8,5.5-12.8
	L2705.4,346.2z M2692.6,346.2h10.9v18.2h-10.9V346.2z M2690.8,419.1l23.7-41.9h23.7l-32.8,61.9h-14.6V419.1z M2743.6,493.8
	l-52.8,10.9v-20l52.8-9.1V493.8z M3080.7,504.7h-63.8l-18.2-10.9v-9.1l0,0v-38.3l-10.9,3.6v-23.7h-7.3v29.1l12.8-5.5v27.3
	l-43.7,16.4v10.9l-52.8-36.4v36.4H2873v-36.4l-51,36.4h-32.8l-43.7-31l16.4-12.8l43.7,29.1l67.4-45.5v-3.6h-41.9v-20h41.9v-12.8
	h-54.7v5.5l-21.9,14.6l25.5,18.2v21.9l-41.9-27.3l-38.3,25.5v3.6l-51,10.9v-7.3l41.9-72.9h9.1l18.2-23.7h23.7l-9.1,10.9h98.4v-10.9
	h23.7v10.9h54.7v20h7.3v-25.5h21.9v25.5h12.8v16.4l5.5-3.6v-31h21.9v23.7h5.5v-36.4h21.9v25.5l27.3-10.9v67.4l-21.9,9.1v-43.7h-5.5
	v43.7l-21.9,9.1v-41.9h-5.5v47.4h60.1L3080.7,504.7z M2763.7,457.3l16.4-12.8l23.7,16.4v23.7L2763.7,457.3z M1903.8,9.2h12.8v38.3
	h12.8V9.2h12.8V0.1h-38.3L1903.8,9.2z M2947.7,408.2h-51v12.8h41.9v20h-41.9v3.6l49.2,32.8v-9.1l12.8-5.5v-36.4h-10.9L2947.7,408.2z
	 M2780.1,417.3l12.8-9.1h-27.3L2780.1,417.3z M2632.5,205.9c-3.9-14.9-11.4-28.7-21.9-40.1c-10.3-12.8-22.6-23.8-36.4-32.8
	c-16.3-10.1-34.2-17.5-52.8-21.9c-23.3-5.3-47.2-7.8-71.1-7.3h-185.8V410l87.4-87.4V198.6h91.1c76.5,0,113,34.6,113,103.8v3.6
	c0,69.2-36.4,103.8-113,103.8h-178.5v98.4h185.8c28.4-0.1,56.6-4.4,83.8-12.8c20.8-7.1,40-18.2,56.5-32.8
	c14.5-12.7,26.2-28.2,34.6-45.5c9.3-16.3,15.4-34.3,18.2-52.8c3.7-17.4,5.5-35.1,5.5-52.8v-16.4c-0.2-15.2-1.4-30.5-3.6-45.5
	C2641.9,234.9,2637.6,220.3,2632.5,205.9L2632.5,205.9z M2736.4,360.8h-10.9v5.5h10.9V360.8z M2042.2,105.7h-87.4v402.6h282.4V408.2
	h-194.9V105.7z M2736.4,351.7h-10.9v3.6h10.9V351.7z M2778.3,353.5L2778.3,353.5v5.5h3.6l-3.6-3.6 M2783.7,359h3.6v-5.5h-5.5
	c1.8,1.8,3.6,1.8,3.6,3.6L2783.7,359z"/>
</svg>
