<?xml version="1.0" encoding="utf-8"?>
<!-- Generator: Adobe Illustrator 26.0.2, SVG Export Plug-In . SVG Version: 6.00 Build 0)  -->
<svg version="1.1"
	 id="svg5" xmlns:inkscape="http://www.inkscape.org/namespaces/inkscape" xmlns:sodipodi="http://sodipodi.sourceforge.net/DTD/sodipodi-0.dtd" xmlns:svg="http://www.w3.org/2000/svg"
	 xmlns="http://www.w3.org/2000/svg" xmlns:xlink="http://www.w3.org/1999/xlink" x="0px" y="0px" viewBox="0 0 512 512"
	 style="enable-background:new 0 0 512 512;" xml:space="preserve">
<style type="text/css">
	.st0{fill-rule:evenodd;clip-rule:evenodd;}
</style>
<path id="svg-def-title-2" class="st0" d="M473.2,179.7H312.9v-77.8h119.8l40.5-41.2H270.9v161.1h161.8L473.2,179.7z M101.2,27.2
	c3.5,0,6.9-1.4,9.3-3.9c2.2-2.3,3.4-5.4,3.1-8.6c0.2-3.2-1-6.2-3.1-8.6c-2.6-2.3-5.9-3.4-9.3-3.1c-3.4-0.3-6.8,0.8-9.3,3.1
	c-2.4,2.2-3.8,5.3-3.9,8.6c-0.2,3.3,1.3,6.5,3.9,8.6C94.4,25.8,97.7,27.2,101.2,27.2 M95,9.3c3.5-3.2,8.9-3.2,12.4,0
	c1.5,1.4,2.4,3.4,2.3,5.4c0.1,2.1-0.8,4.1-2.3,5.4c-3.5,3.2-8.9,3.2-12.4,0c-1.5-1.4-2.4-3.4-2.3-5.4C92.6,12.7,93.5,10.7,95,9.3
	 M77.9,29.6h3.9V0h-3.9v8.6H65.4v3.9h12.4v4.7H65.4V21h12.4V29.6z M421,494.9h-3.1v7.8h3.1c2.1,0,3.9-1.7,3.9-3.9
	C424.9,496.6,423.2,494.9,421,494.9 M189.9,19.5c1.2,1,2,2.4,2.3,3.9c6.6-1.6,12.6-5.1,17.1-10.1c4.6,4.9,10.6,8.4,17.1,10.1
	l2.3-3.9c-7.1-1.3-13.5-5.2-17.9-10.9l1.6-1.6h15.6V2.3h-37.3V7h17.1C204.3,13.9,197.6,18.5,189.9,19.5 M270.9,512H488v-41.2H270.9
	V512z M422.6,476.2c2,0.1,3.8,1.3,4.7,3.1h-3.1c0-0.9-0.7-1.6-1.6-1.6c-0.9,0-1.6,0.7-1.6,1.6l0,0l2.3,1.6c2.3,0.8,3.9,1.6,3.9,3.9
	c-0.4,2.3-2.4,3.9-4.7,3.9c-2.3,0-3.9-1.6-5.4-3.9h3.1c0,0.8,1.6,1.6,2.3,1.6c0.8,0,1.6,0,1.6-0.8s-1.6-1.6-3.1-2.3
	c-1.7,0-3.1-1.4-3.1-3.1v0C418.3,477.8,420.3,476.2,422.6,476.2 M396.1,476.2h3.1v5.4h4.7v-5.4h3.1v12.4h-3.1V484h-4.7v4.7h-3.1
	V476.2z M379,476.2h3.1v12.4H379V476.2z M365.8,476.2h3.1l2.3,3.9l3.1,3.9l0,0v-7.8h2.3v12.4h-2.3l-2.3-3.1l-3.1-3.9l0,0v7h-3.1
	L365.8,476.2z M340.9,505.8h-10.1v-14h10.1v3.1h-7v2.3h5.4v3.1h-5.4v2.3h7V505.8z M339.3,488.7v-1.6h-5.4v1.6h-3.1l5.4-12.4h2.3
	l5.4,12.4H339.3z M343.2,476.2h4.7c2.6,0,4.7,2.1,4.7,4.7c0,1.6-0.8,3.1-2.3,3.1l3.1,4.7h-3.9l-2.3-3.9h-1.6v3.9h-2.3V476.2z
	 M356.5,505.8h-3.9l-2.3-3.9l-3.9-4.7l0,0v8.6h-3.1v-14h3.1l3.1,3.9l3.1,4.7l0,0v-8.6h3.9L356.5,505.8z M357.2,484.8v3.9h-3.1v-12.4
	h3.1v4.7l0,0l1.6-1.6l3.1-3.1h3.1l-5.4,5.4l5.4,7h-3.1L358,484L357.2,484.8z M365,505.8h-7v-14h7c3.9,0,7,3.1,7,7
	c0.5,3.4-1.9,6.5-5.3,7C366.1,505.8,365.6,505.8,365,505.8 M383.7,494.9h-7v3.1h5.4v3.1h-5.4v4.7h-3.1v-14h10.1L383.7,494.9z
	 M388.4,505.8h-3.1v-14h3.1V505.8z M382.9,482.4c0-3.4,2.8-6.2,6.2-6.2c2.2,0,4.3,1.2,5.4,3.1h-3.1c0-0.8-1.6-0.8-2.3-0.8
	c-1.7,0-3.1,1.4-3.1,3.1v0c0,1.9,1.3,3.5,3.1,3.9c2.3,0,3.1-0.8,3.1-2.3h-3.1v-2.3h5.4v7h-2.3c-0.7,1-1.9,1.6-3.1,1.6
	c-3.4,0-6.2-2.7-6.3-6.2C382.9,483,382.9,482.7,382.9,482.4 M401.6,505.8h-10.9v-14h10.9v3.1h-7v2.3h5.4v3.1h-5.4v2.3h7V505.8z
	 M414,505.8h-10.9v-14h3.9v10.9h7V505.8z M414,488.7h-3.1v-9.3h-3.1v-3.1h10.1v3.1H414L414,488.7z M421,505.8h-6.2v-14h6.2
	c4,0,7.4,3,7.8,7c0,3.9-3.1,7-7,7C421.6,505.8,421.3,505.8,421,505.8 M174.4,17.1h8.6v-4.7h-8.6V0h-3.9v28.8h3.9V17.1z M171.3,32.7
	c-3.9-1.7-8.2-2.5-12.4-2.3c-4-0.1-8,0.7-11.7,2.3c-2.8,1.6-4.6,4.6-4.7,7.8c0.1,3,1.9,5.8,4.7,7c3.7,1.7,7.7,2.5,11.7,2.3
	c4.3,0.2,8.5-0.6,12.4-2.3c2.6-1.7,4.1-4.7,3.9-7.8C175.1,36.8,173.6,34.2,171.3,32.7 M167.4,44.4l-7.8,1.6l-8.6-1.6
	c-2.3-1.6-3.9-2.3-3.9-3.9s1.6-3.1,3.9-4.7l8.6-1.6l7.8,1.6c1.8,0.9,3,2.7,3.1,4.7C170.5,42.3,169.2,44,167.4,44.4 M131.6,0h-3.9
	v28.8h3.9V0z M160.4,3.1h-3.9v8.6h-14V3.1h-3.9v23.3h21.8V3.1z M156.5,22.6h-14v-7h14V22.6z M96.6,37.3v12.4h35.8v-4.7h-31.9V42
	h31.1V31.1H95.8V35h31.1v2.3H96.6z M207.1,49.8h3.9V31.1h21v-4.7H186v4.7h21V49.8z M432.7,335.4l40.5-42H270.9v161.8h161.8l40.5-42
	H312.9v-77.8L432.7,335.4z M481.7,237.3H303.5l-40.5,42h218.7L481.7,237.3z M192.3,210.1h42l16.3-78.6V60.7h-26.5L192.3,210.1z
	 M365,494.9h-3.1v7.8h3.1c2.1,0,3.9-1.7,3.9-3.9C368.9,496.6,367.2,494.9,365,494.9 M336.2,480.1L336.2,480.1v3.9h2.3v-2.3
	c0-0.6-0.3-1.2-0.8-1.6 M351,480.9l-1.6-1.6h-2.3v3.1h2.3C350.3,482.4,351,481.7,351,480.9L351,480.9 M84.1,196.1
	c25.7,0.3,48.7-15.6,57.6-39.7h7L137,210.1h42l31.9-149.4h-42l-11.7,53.7h-15.6c-11.6-31.4-46.5-47.5-78-35.9
	c-31.4,11.6-47.5,46.5-35.9,78C36.5,180,58.9,195.8,84.1,196.1 M84.1,112.8c12.5,0,22.6,10.1,22.6,22.6S96.6,158,84.1,158
	s-22.6-10.1-22.6-22.6C61.5,122.9,71.7,112.8,84.1,112.8 M44.4,40.5c-0.1,3.3,2.2,6.3,5.4,7c4.2,1.7,8.7,2.5,13.2,2.3
	c4.8,0.1,9.5-0.7,14-2.3c2.8-1.2,4.6-4,4.7-7c0.2-3.5-2.1-6.7-5.4-7.8c-4.2-1.7-8.7-2.5-13.2-2.3c-4.5,0-9,0.7-13.2,2.3
	C46.8,35,44.4,37.3,44.4,40.5 M53.8,35.8l9.3-1.6c3.5-0.2,7,0.7,10.1,2.3c3.1,0.8,3.9,2.3,3.9,3.9s-0.8,2.3-3.9,3.9l-10.1,1.6
	l-9.3-1.6c-3.1-1.6-4.7-2.3-4.7-3.9S50.7,37.3,53.8,35.8 M63.1,2.3H38.2v24.9h24.9V2.3z M59.2,22.6H42.9V7h16.3V22.6z M185.3,335.4
	l7.8-42H32v42h24.9l-5.4,24.9H32v41.2h145.5l7.8-41.2H158l4.7-24.9H185.3z M116,360.3H92.7l5.4-24.9h23.3L116,360.3z M32,450.5h86.4
	L32,474.7V512h218.7v-37.3H165l85.6-24.1v-38.1H32V450.5z M197.7,401.5H239l11.7-53.7v-54.5h-30.3L197.7,401.5z M249.9,237.3h-172
	l6.2-27.2h-42L32.8,256v23.3h176.6L249.9,237.3z"/>
</svg>
