<?xml version="1.0" encoding="utf-8"?>
<!-- Generator: Adobe Illustrator 26.0.2, SVG Export Plug-In . SVG Version: 6.00 Build 0)  -->
<svg version="1.1"
	 id="svg5" xmlns:inkscape="http://www.inkscape.org/namespaces/inkscape" xmlns:sodipodi="http://sodipodi.sourceforge.net/DTD/sodipodi-0.dtd" xmlns:svg="http://www.w3.org/2000/svg"
	 xmlns="http://www.w3.org/2000/svg" xmlns:xlink="http://www.w3.org/1999/xlink" x="0px" y="0px" viewBox="0 0 2157.9 512"
	 style="enable-background:new 0 0 2157.9 512;" xml:space="preserve">
<style type="text/css">
	.st0{fill-rule:evenodd;clip-rule:evenodd;}
</style>
<path id="svg-def-title-2" class="st0" d="M2106.7,450.3h-10.5v28.6h10.5c6.6,0.9,12.7-3.7,13.6-10.3c0.1-1.1,0.1-2.2,0-3.2
	c0.8-7.4-4.5-14.1-12-15C2107.8,450.3,2107.3,450.3,2106.7,450.3 M1691.1,322.3h-284.6v-140h215.3l69.3-78.3h-362.9v296.7h293.6
	L1691.1,322.3z M116,63.2v21.1h61.7v-7.5h-54.2v-6h52.7V52.7H116v7.5h52.7v3H116z M177.7,0h-7.5v49.7h7.5V0z M244,55.7
	c-6-3.3-12.8-4.8-19.6-4.5c-7.3-0.3-14.5,1.3-21.1,4.5c-4.4,2.5-7.2,7-7.5,12c0.1,5.5,2.9,10.6,7.5,13.6l21.1,3
	c6.8,0.3,13.6-1.3,19.6-4.5c5.2-1.5,8.5-6.7,7.5-12C251.9,62.5,248.8,57.7,244,55.7 M237.9,75.3l-13.6,3l-15.1-3
	c-3-1.3-4.8-4.3-4.5-7.5c0-3,1.5-4.5,4.5-6l15.1-3l13.6,3c3.6,0.7,6.1,3.9,6,7.5C244,70.8,242.4,73.8,237.9,75.3 M1167.1,227.4
	h-51.2l10.5-45.2h40.7l15.1-78.3H880.9v78.3h45.2l-9,45.2h-36.1v78.3h272.6L1167.1,227.4z M1039.1,227.4h-43.7l9-45.2h43.7
	L1039.1,227.4z M305.7,84.3h7.5V52.7h36.1v-7.5h-79.8v7.5h36.1V84.3z M841.8,322.3H542.1v-140h230.4l69.3-78.3h-378v296.7h308.7
	L841.8,322.3z M277.1,33.1l4.5,7.5c10.7-3.9,20.5-10,28.6-18.1c7.3,9,17.3,15.4,28.6,18.1c0.8-2.9,2.4-5.5,4.5-7.5
	c-11.9-2.2-22.6-8.6-30.1-18.1v-4.5h27.1v-6h-61.7v6h28.6C304.2,21.1,293.6,28.6,277.1,33.1 M250,28.6H265v-7.5H250V0h-7.5v49.7h7.5
	V28.6z M1748.3,512h409.6V103.9h-409.6V512z M2112.8,384c7.8-0.9,15,4.3,16.6,12h-9c-1.3-3-4.3-4.8-7.5-4.5c-4.5,0-6,1.5-6,3
	s4.5,3,10.5,6c6,3,13.6,6,13.6,13.6s-7.5,13.6-18.1,13.6c-8.5,0.3-16-5.4-18.1-13.6l10.5-3c0,4.2,3.4,7.5,7.5,7.5c4.5,0,6-1.5,6-4.5
	s-4.5-4.5-10.5-6s-12-6-12-13.6c0-7.5,7.5-12,16.6-12 M2017.9,382.5h10.5v16.6h16.6V384h10.5v43.7H2045v-16.6h-16.6v16.6h-10.5
	V382.5z M1954.6,382.5h10.5v43.7h-10.5V382.5z M1908,382.5h10.5l9,13.6l9,12l0,0V384h10.5v43.7h-9l-9-12l-10.5-13.6l0,0v25.6H1908
	L1908,382.5z M1825.1,382.5h16.6c10.5,0,18.1,6,18.1,15.1c-0.1,5.9-3.6,11.2-9,13.6l10.5,15.1h-12l-7.5-13.6h-6v13.6h-10.5
	L1825.1,382.5z M1796.5,382.5h10.5l18.1,43.7h-12l-3-6h-16.6l-3,6h-12L1796.5,382.5z M1817.6,489.4h-39.2v-51.2h37.6v12h-25.6v9
	h21.1v10.5h-21.1v9h27.1L1817.6,489.4z M1871.8,489.4h-12l-10.5-15.1l-12-16.6l0,0v31.6h-13.6v-51.2h12l12,15.1l10.5,16.6l0,0v-31.6
	h13.6V489.4z M1874.8,412.6v13.6h-10.5V384h10.5v16.6l0,0l6-6l10.5-10.5h13.6l-18.1,19.6l18.1,24.1h-12l-13.6-18.1L1874.8,412.6z
	 M1901.9,489.4h-22.6v-51.2h22.6c14.1-0.9,26.2,9.9,27.1,24c0.1,1,0.1,2.1,0,3.1c0,14.1-11.4,25.6-25.6,25.6c-0.5,0-1,0-1.6,0
	 M1971.2,450.3h-25.6v10.5h19.6v10.5h-19.6v19.6h-12v-52.7h37.6V450.3z M1987.8,490.9h-12v-52.7h12V490.9z M1968.2,406.6
	c0-12.5,10.1-22.6,22.5-22.6c0.5,0,1,0,1.6,0.1c7.8,0.3,15,4.2,19.6,10.5l-10.5,3l-9-4.5c-6.7-0.1-12.1,5.3-12.1,12
	c0,0.5,0,1.1,0.1,1.6c-0.9,5.8,3,11.1,8.8,12c1.1,0.2,2.2,0.2,3.3,0c4.9,0.6,9.6-1.7,12-6h-12v-9h21.1v24.1h-9v-3l0,0
	c-3.4,2.8-7.6,4.4-12,4.5c-12.4,0.8-23.2-8.6-24-21C1968.2,407.6,1968.2,407.1,1968.2,406.6 M2034.4,490.9h-37.6v-52.7h37.6v12
	h-25.6v9h19.6v10.5h-19.6v9h25.6V490.9z M2079.6,490.9H2042v-52.7h12v40.7h25.6V490.9z M2082.6,427.7h-10.5v-33.1h-13.6V384h37.6
	v10.5h-13.6L2082.6,427.7z M2106.7,490.9h-24.1v-52.7h24.1c14.1-0.9,26.2,9.9,27.1,24c0.1,1,0.1,2.1,0,3.1
	c0,14.1-11.4,25.6-25.6,25.6C2107.8,491,2107.2,490.9,2106.7,490.9 M227.4,6h-7.5v13.6h-24.1V6h-7.5v39.2h39.2V6z M219.9,37.6h-24.1
	V27.1h24.1V37.6z M1313.1,512h409.6v-78.3h-409.6V512z M1191.2,305.7h78.3l21.1-100.9V103.9h-57.2L1191.2,305.7z M448.8,512h409.6
	v-78.3H518L448.8,512z M880.9,396h161.1l-161.1,45.2V512h409.6v-70.8h-161.1l161.1-45.2v-69.3H880.9V396z M1804,403.6
	c-1.5-3-1.5-6-3-6l0,0c-0.1,2.1-0.6,4.1-1.5,6l-3,9h10.5L1804,403.6z M1901.9,450.3h-10.5v28.6h10.5c6.6,0.9,12.7-3.7,13.6-10.3
	c0.1-1.1,0.1-2.2,0-3.2c0.8-7.4-4.5-14.1-12-15C1903,450.3,1902.5,450.3,1901.9,450.3 M1847.7,399.1c0-2.5-2-4.5-4.5-4.5l0,0h-7.5
	v10.5h7.5C1846.2,405.1,1847.7,402.1,1847.7,399.1 M316.2,384h78.3l31.6-147.6V103.9h-49.7L316.2,384z M60.2,4.5H18.1v42.2h42.2V4.5
	z M54.2,39.2H25.6V12h28.6V39.2z M28.6,67.8c0.1,5.9,3.6,11.2,9,13.6c7.2,2.7,14.9,3.7,22.6,3c7.7,0.9,15.4-0.1,22.6-3
	c5.4-2.4,8.9-7.7,9-13.6c-0.3-5.5-3.9-10.2-9-12c-7.1-3.3-14.8-4.8-22.6-4.5c-7.7,0-15.4,1.6-22.6,4.5
	C32.5,57.5,28.9,62.3,28.6,67.8 M43.7,61.7l16.6-3l18.1,3c4.5,1.5,6,4.5,6,6c0,1.5-1.5,6-7.5,7.5l-16.6,3l-16.6-3
	c-4.5-1.5-7.5-4.5-7.5-7.5C36.1,64.8,39.2,63.2,43.7,61.7 M84.3,49.7h7.5V0h-7.5v13.6H64.8v7.5h19.6v7.5H64.8v7.5h19.6L84.3,49.7z
	 M112.9,384H34.6l-18.1,84.3V512h338.8l69.3-78.3H102.4L112.9,384z M125,46.7c6-0.1,11.9-2.2,16.6-6c3.5-4.3,5.6-9.5,6-15.1
	c-0.4-5.5-2.5-10.8-6-15.1C136.7,7,131,4.9,125,4.5c-5.5,0.4-10.8,2.5-15.1,6c-4.1,3.9-6.3,9.4-6,15.1c-0.3,5.7,1.9,11.1,6,15.1
	C114,44.5,119.4,46.6,125,46.7 M114.4,16.6c2.9-2.7,6.6-4.3,10.5-4.5c4-0.1,7.9,1.5,10.5,4.5c3.2,1.8,5,5.4,4.5,9
	c-0.3,3.5-1.9,6.7-4.5,9c-2.7,3-6.5,4.6-10.5,4.5c-3.9-0.2-7.7-1.8-10.5-4.5c-2.6-2.3-4.2-5.6-4.5-9
	C109.5,21.9,111.2,18.4,114.4,16.6 M114.4,358.4c47.7-0.7,90.2-30.6,106.9-75.3h13.6L212.3,384h78.3l60.2-280.1h-78.3l-21.1,100.9
	h-30.1c-16.7-44.7-59.2-74.6-106.9-75.3C51.2,129.5,0,180.7,0,244S51.2,358.4,114.4,358.4 M114.4,201.8c23.3,0,42.2,18.9,42.2,42.2
	c0,23.3-18.9,42.2-42.2,42.2S72.3,267.2,72.3,244C72.3,220.7,91.2,201.8,114.4,201.8"/>
</svg>
