<?xml version="1.0" encoding="utf-8"?>
<!-- Generator: Adobe Illustrator 26.0.2, SVG Export Plug-In . SVG Version: 6.00 Build 0)  -->
<svg version="1.1"
	 id="svg5" inkscape:version="1.2.2 (b0a8486541, 2022-12-01)" xmlns:inkscape="http://www.inkscape.org/namespaces/inkscape" xmlns:sodipodi="http://sodipodi.sourceforge.net/DTD/sodipodi-0.dtd" xmlns:svg="http://www.w3.org/2000/svg"
	 xmlns="http://www.w3.org/2000/svg" xmlns:xlink="http://www.w3.org/1999/xlink" x="0px" y="0px" viewBox="0 0 512 512"
	 style="enable-background:new 0 0 512 512;" xml:space="preserve">
<style type="text/css">
	.st0{fill-rule:evenodd;clip-rule:evenodd;}
</style>
<path id="svg-def-title-2" class="st0" d="M227.6,208.1V251l-69.5-49.1l29.3-21.6L227.6,208.1z M394.9,115v21.8h73.5v34.6h-73.5v6.8
	l94,65.1v41.4h1.3V512H149l-33.7-17.2v-86.9l-19.6,7.5v-40.1H84.3V424l21.6-7.9v48.9l-84.5,31v-48.9l23.5-8.6v-63.2H26.5v-34.6h18.5
	v-43.6h39.4v43.6h21.6v28.4l9.5-3.7v-54.8h39.4v39.8l9.5-3.7v-61h39.4v46l49.5-18.9v118.8l-39.4,16.5v-77.9l-10.1,4v77l-39.4,16.5
	v-78.6l-9.5,3.7v83.2h108.1V284.7h88.9v-64.3L260,285.1h-56.3l-78.6-55.7l29.3-21.6l77.5,53.3l119.9-83v-6.8H278v-34.6h73.7V115h-96
	v8.6l-39.8,28l46.2,30.2v40.9l-74.8-51.3l-68.7,47.8v5.3l-90,19.4v-11.7l75.3-129.4h14.3l31.7-42.5h42.5l-15,20.2h174.3V58.9h43.1
	v21.6h95.7V115H394.9z M135.8,136.1L122,154.6h-9.9l-20.2,39.2l18-4.4v-4.8l48-33.5L135.8,136.1z M159.8,115l26,16.7L210,115H159.8z
	 M394.9,220.4v64.3h91.3L394.9,220.4z M427.7,455.7v9.7h5.9v-24.6h-5.9v9.5h-9.2v-9.5h-5.9v24.6h5.9v-9.7H427.7z M465.5,460.5
	c-2.6,0-4.4-1.8-5.1-3.7l-5.7,1.5c1.8,4.6,5.3,7.5,10.3,7.5c5.7,0,9.7-3.3,9.7-7.7c0-4.2-3.7-6.4-7.5-7.7c-3.1-1.1-5.5-1.5-5.5-3.3
	c0-0.9,1.1-1.8,2.9-1.8s3.5,1.1,4.2,3.1l5.7-1.5c-1.1-3.7-4.8-6.6-9.7-6.6c-5.3,0-9,3.5-9,7.3c0,4.4,3.3,5.9,6.4,7
	c3.3,1.3,6.4,1.8,6.4,3.7C468.6,459.6,467.5,460.5,465.5,460.5L465.5,460.5z M448.6,500.1h12.8c8.4,0,15-5.7,15-14.5
	c0-8.6-6.6-14.5-15-14.5h-12.8V500.1z M455.6,446.2v-5.5h-20.7v5.5h7.3v19.1h5.9v-19.1H455.6z M425.7,500.1h20.9v-6.6h-13.9v-22.4
	h-7V500.1z M400.2,500.1h21.6v-6.6h-14.5v-5.1h11.2v-6.2h-11.2v-4.8h14.3v-6.4h-21.3V500.1z M388.7,500.1h7v-29.1h-7V500.1z
	 M365.4,500.1h7v-10.6H383v-6.4h-10.6v-5.7h13.6v-6.4h-20.7V500.1z M335.2,500.1H348c8.4,0,15-5.7,15-14.5c0-8.6-6.6-14.5-15-14.5
	h-12.8L335.2,500.1z M304.6,500.1h7v-6.4c0-6.4,0-11,0-11l0,0c0,0,4,5.5,6.6,9.2l5.9,8.1h6.6v-29.1h-7v6.6c0,5.3,0.2,10.3,0,10.3
	l0,0c0,0-4.4-6.2-6.4-8.8l-6.2-8.1h-6.6V500.1z M279.1,500.1h21.3v-6.6h-14.3v-5.1h11v-6.2h-11v-4.8h14.1v-6.4h-21.1V500.1z
	 M295,440.7h-5.7l-9.7,24.6h6.4l1.3-4h9.7l1.5,4h6.4L295,440.7z M324.2,449.1c0-5.1-3.7-8.4-9.9-8.4h-9.2v24.6h5.9v-8.1h3.1l4.4,8.1
	h6.6l-5.3-9.2C322.5,454.8,324.2,452.4,324.2,449.1z M349.5,440.7h-7.3l-5.9,5.9c-2.4,2.4-3.1,3.3-3.3,3.3l0,0c0,0,0.2-1.1,0.2-5.3
	v-4h-5.9v24.6h5.9v-8.1l2-2.2l7.5,10.3h6.8l-10.3-14.1L349.5,440.7z M373.3,440.7h-5.9v5.7c0,4.4,0.2,8.8,0,8.8l0,0
	c0,0-3.7-5.5-5.3-7.5l-5.3-7h-5.5v24.6h5.9v-5.5c0-5.3-0.2-9.2,0-9.2l0,0c0,0,3.3,4.8,5.5,7.9l5.1,6.8h5.5L373.3,440.7z M383,440.7
	H377v24.6h5.9V440.7z M385,453c0,7.3,5.7,12.8,12.8,12.8c2.4,0,5.3-0.9,6.6-2.4l0,0c0,0,0,0.2,0,2h5.1v-14.1H398v4.8h6.4l0,0
	c-0.7,1.8-2.4,4-6.4,4c-4,0-6.8-2.9-6.8-7s2.4-7,6.6-7c2,0,4,0.9,5.1,2.4l6.2-1.8c-2.2-4-6.4-6.4-11.2-6.4
	C390.7,440.3,385,445.5,385,453L385,453z M315,452.1h-4v-5.9h4c2.2,0,3.1,1.5,3.1,2.9S317.2,452.1,315,452.1L315,452.1z M291,451.5
	c0.4-1.3,1.1-3.5,1.1-3.5l0,0c0,0,0.7,2.2,1.3,3.5l1.8,4.8h-5.9L291,451.5z M355.7,485.6c0,5.1-3.5,7.9-7.7,7.9h-5.7v-16.1h5.7
	C352.2,477.4,355.7,480.7,355.7,485.6z M469,485.6c0,5.1-3.5,7.9-7.7,7.9h-5.7v-16.1h5.7C465.5,477.4,469,480.7,469,485.6z
	 M212.9,41.7c-1.8-2-5.3-5.1-8.4-7l4.6-4c3.1,1.8,7,4.4,8.8,6.6L212.9,41.7z M228,41.7c0,3.5-0.7,5.5-2.6,6.6
	c-2.2,1.1-5.1,1.3-8.8,1.3c-0.2-2-1.1-5.3-2.2-7c1.7,0,3.4,0,5.1,0c0.7,0,0.9-0.2,0.9-0.9V30h-18.5c-0.9,7.3-3.3,14.7-9.2,19.8
	c-1.1-1.5-4.2-4.2-5.7-5.1c4.8-4,6.8-9.5,7.5-14.7H188v-6.8h6.8V7.1h10.6c0.7-2,1.3-4.2,1.8-5.9l9.2,0.7c-0.9,2-2,3.7-3.1,5.3H228
	v16.1h6.4V30H228V41.7z M202.3,13.7v9.5h9.2c-1.5-1.8-4.4-4-6.6-5.7l4.4-3.7H202.3z M220.3,13.7H210c2.4,1.8,5.5,4.2,7,5.9l-4.2,3.5
	h7.5V13.7z M162.5,21.4h22c0,0-0.2,2.2-0.2,3.1c-0.9,13.6-2,19.4-4.2,21.8c-1.8,1.8-3.5,2.4-6.2,2.6c-2.2,0.2-5.5,0.2-8.8,0
	c-0.2-2-1.3-5.1-2.9-7c2.9,0.2,5.9,0.3,8.8,0.2c0.9,0,1.8,0,2.4-0.7c1.3-0.9,2.2-5.1,2.9-13h-15c-1.8,8.4-5.5,16.1-14.5,21.3
	c-1.1-2-3.3-4.6-5.3-5.9c11.7-6.6,12.5-17.2,13-27.5h-12.3V9.1h20.9c-0.7-1.8-1.8-4-2.6-5.9l7.3-2.6c0.2-2.6,2.9,5.3,3.7,7.3
	L168,9.1h20.7v7.3h-26C162.6,18.1,162.6,19.8,162.5,21.4z M130.1,45.6H109V49h-7.5V4.3H138V49h-7.9L130.1,45.6z M130.1,11.8H109V21
	h21.1V11.8z M130.1,28.3H109v9.9h21.1V28.3z M93.4,48.3c-2.2,1.1-5.3,1.3-9.5,1.3c-0.2-2-1.5-5.3-2.4-7c2.4,0,5.5,0,6.2,0
	c1.1,0,1.3-0.2,1.3-1.1v-7.7h-9c-1.1,5.9-3.5,12.1-8.6,16.1c-1.1-1.3-4.2-3.7-5.7-4.6c7.5-6.2,8.1-15.8,8.1-23.3V3.4h22.4v38.1
	C96.2,45.2,95.6,47.2,93.4,48.3z M89,10.2H81v5.1H89V10.2z M89,21.9H81c0,1.8-0.2,3.5-0.2,5.3H89V21.9z M58.6,39.9h-6.8V4.1h17.8
	v31.7h-11V39.9z M62.8,10.7h-4.2v5.7h4.2V10.7z M62.8,28.9V23h-4.2v5.9H62.8z M113.2,58.9L55.3,168H28.7v-35L70,58.9H113.2z
	 M122.9,266l-94.4,19.1v-33l94.4-19.1V266z"/>
</svg>
