<?xml version="1.0" encoding="utf-8"?>
<!-- Generator: Adobe Illustrator 26.0.2, SVG Export Plug-In . SVG Version: 6.00 Build 0)  -->
<svg version="1.1"
	 id="svg5" xmlns:inkscape="http://www.inkscape.org/namespaces/inkscape" xmlns:sodipodi="http://sodipodi.sourceforge.net/DTD/sodipodi-0.dtd" xmlns:svg="http://www.w3.org/2000/svg"
	 xmlns="http://www.w3.org/2000/svg" xmlns:xlink="http://www.w3.org/1999/xlink" x="0px" y="0px" viewBox="0 0 512 512"
	 style="enable-background:new 0 0 512 512;" xml:space="preserve">
<style type="text/css">
	.st0{fill-rule:evenodd;clip-rule:evenodd;}
</style>
<path id="svg-def-title-2" class="st0" d="M474.8,49.1h-32v30.7h32V49.1z M25.6,34.1l6.1,5.5c3.9-2.7,7.2-6.2,9.5-10.2
	c2.3-6.3,3.5-13,3.4-19.8h9.5l-9.5,8.9l6.1,5.5l15-17L61,2.7H26.9v6.8h10.9c0,3.7-0.4,7.3-1.4,10.9C35,26.4,31,31.3,25.6,34.1
	 M201.5,87.9l83.2,26.6V83.9L243,70.2l-41.6-13V87.9z M59.7,23.2h37.5v-6.8H59.7V23.2z M141.5,471.8V355.9h-30.7v140.4l0,0v14.3
	c55.2-7.5,71.6-38.9,71.6-38.9v-35.5C171.3,450.8,157.4,462.9,141.5,471.8 M343.3,146.6V48.4h-30v83.2l-124.1,36.8v34.8l154.1-46.4
	V146.6z M180.3,172.5h-62V79.8h36.1l25.9-30.7H25.6v30.7h62v92.7h-62v30.7h154.8V172.5z M173.5,213.4H26.2v30.7h114.5
	c-9.5,28-34.8,66.8-98.2,79.1v37.5c7.6-0.4,15.2-1.7,22.5-4.1v81.1c0,35.5-36.8,36.8-36.8,36.8V510c68.9-10.2,68.2-62,68.2-62v-92
	H67.2c34.8-9.5,96.1-40.9,120.7-142.5L173.5,213.4z M303,205.2l-103.6,32v33.4l39.5-12.3v72.9h29.3v-81.8l34.8-10.9V205.2z
	 M433.9,49.1h-32v30.7h32V49.1z M218.5,18.4l6.8-2.7c-0.5-5.3-2.6-10.3-6.1-14.3l-6.8,2C216.3,7.4,218.5,12.8,218.5,18.4
	 M382.8,127.5l92,28.6v-30l-92-29.3V48.4h-30.7v154.8h30.7V127.5z M112.8,13.6h11.6c-2.7,14.3-21.8,19.8-21.8,19.8l4.8,6.8
	c6.1-2.2,11.7-5.7,16.4-10.2c4.9-5.6,8.2-12.4,9.5-19.8l-4.1-4.1h-12.3l2-3.4L112.1,0c-2.7,7.1-7.4,13.3-13.6,17.7l4.8,5.5
	C107,20.6,110.2,17.3,112.8,13.6 M147.6,28c-2.4,3-5.8,5.2-9.5,6.1l4.8,6.1c4.3-1.3,8.2-3.9,10.9-7.5c2.9-4.2,4.2-9.3,3.4-14.3h14.3
	v-6.8h-14.3V2h-6.8v9.5h-15v6.8h15C150.2,21.8,149.3,25.1,147.6,28 M209,21.8l6.8-2.7c-0.5-5.3-2.6-10.3-6.1-14.3l-6.8,2.7
	C206.5,11.4,208.6,16.5,209,21.8 M172.1,28.6c4.4-1.7,8.5-4,12.3-6.8v17h6.8V16.4c4.2-3,7.9-6.7,10.9-10.9l-5.5-4.8
	c-7.5,9.5-17.4,16.8-28.6,21.1L172.1,28.6 M207.6,33.4l4.8,6.1c7-3,13.2-7.4,18.4-13c4.5-6.7,7.1-14.5,7.5-22.5l-8.2-2
	c0.1,7.2-1.8,14.3-5.5,20.5C219.9,27.4,214,31.1,207.6,33.4 M332.4,452.7h-0.7v1.4h0.7V452.7z M332.4,450.6L332.4,450.6z M426.4,495
	l5.5-1.4V480h-4.1v-7.5H408v4.8h16.4v7.5H408v1.4l18.4,13V495z M338.5,452.7h-2v1.4h2V452.7z M368.5,472.5h-10.9l6.1,3.4
	L368.5,472.5z M324.9,512H481V356.6H324.9V512z M361,452.7v-3.4h4.8c-0.4,0-0.7,0.3-0.7,0.7h2.7v4.1h1.4v1.4h-1.4v3.4h-2v-1.4h0.7
	v-2h-4.1c-0.1,1.6-0.9,3-2,4.1l-1.4-1.4c1.1-0.5,1.9-1.5,2-2.7h-1.4v-1.4h1.4V452.7z M365.1,456.8l-2-1.4h0.7c0.7,0,2,0.7,2,1.4
	H365.1z M349.4,451.3V450h4.8c-0.4-0.3-0.6-0.8-0.7-1.4h1.4l1.4,2h3.4v1.4h-5.5v1.4h4.8c-0.7,2.7-0.7,4.1-1.4,4.8h-2.7
	c-0.5-0.6-0.7-1.3-0.7-2h2c0.7,0,0.7-0.7,0.7-2.7h-3.4c0,2-1,3.8-2.7,4.8l-1.4-1.4c2.7-1.4,2.7-3.4,2.7-6.1L349.4,451.3z
	 M340.5,449.3h8.2v9.5h-8.2V449.3z M335.1,448.6h4.8v8.2c0,0.7,0,1.4-0.7,1.4h-2v-1.4h2v-1.4h-2c-0.7,1.4-0.7,2.7-2,3.4l-1.4-1.4
	c2-0.7,2-2.7,2-4.8L335.1,448.6z M330.3,448.6h3.4v6.8h-2v1.4h-1.4V448.6z M329.6,476.5l8.9-16.4h9.5l-13,23.9h-5.5V476.5z
	 M329.6,497.7l16.4-28h2.7l6.8-8.9h9.5l-3.4,4.1h37.5v-4.8h8.9v4.8h21.1v7.5h2.7v-9.5h8.2v9.5h4.8v6.1h2v-13h8.2v8.9h2v-13.6h8.9
	v9.5l10.2-4.1v25.9l-8.2,3.4v-17h-2v17l-8.9,3.4v-16.4h-2v18.4h23.2v7.5h-24.5l-6.8-4.1v-3.4l0,0v-14.3l-4.1,1.4V480h-2.7v10.2
	l4.8-1.4V499l-16.4,6.1v4.1L408,495v14.3h-8.9V495l-19.8,14.3h-12.3l-17-12.3l6.8-4.1l16.4,10.9l25.9-17.7v-1.4h-15.7v-7.5h15.7
	v-4.8h-20.5v2l-8.9,6.1l10.2,6.1v8.9l-16.4-10.9l-15,10.2v1.4l-19.1,4.1L329.6,497.7z M357.6,491.5l6.1-4.8l8.9,6.1v8.9L357.6,491.5
	z M329.6,501.8l20.5-4.1v7.5l-20.5,4.1V501.8z M352.8,477.2l-3.4,4.1h-2l-4.1,8.2h4.1v-1.4l10.2-6.8L352.8,477.2z M338.5,450h-2v1.4
	h2V450z M363,452h-0.7v1.4h2C364.4,452.6,363.8,452,363,452 M284,387.2h32v-30.7h-32V387.2z M486.4,266.6H320.1v30.7h140.4
	L486.4,266.6z M347.4,454.1h-4.8v2h4.8V454.1z M224,355.9h-30.7v154.8H224V435l91.4,28.6v-30L224,404.3V355.9z M347.4,450.6h-4.8v2
	h4.8V450.6z M365.1,453.4h1.4v-2h-0.7L365.1,453.4z M242.4,387.2h32.7v-30.7h-32.7V387.2z"/>
</svg>
