<svg id="ac852d8a-f53a-496f-8fa3-4d3dbeda6e15" data-name="svg5" xmlns="http://www.w3.org/2000/svg"
     viewBox="0 0 512 295.29">
  <defs>
    <style>.aa3d45c8-c608-4188-8047-4c311ab428bb{fill-rule:evenodd;}</style>
  </defs>
  <path id="a07df763-4da7-4bb0-a334-778db4f0971e"
        class="aa3d45c8-c608-4188-8047-4c311ab428bb"
        d="M242.13,217.76V108.37H212.2V196l-61.53-87.59H117V247.69h29.93v-92l65.27,92ZM0,403.26H29.93V348.31h68V316.7h-68V296.06H99.59v-31.6H0Zm110.94,0h29.93V306.38H111.58L141,276.45v-12H110.94Zm-81-211.17H100.1V160H29.93V139.84H86.56L102.3,124.1V108.37H0V247H103.33V214.92H29.93Zm358.49,6.06c.51-5.93,1-12,1-18.45v-5.41a77.87,77.87,0,0,0-1-16.39,73.37,73.37,0,0,0-3.87-14.7,37.39,37.39,0,0,0-8.13-13.55,50.64,50.64,0,0,0-12.51-11.48A69.15,69.15,0,0,0,346,110.56a119.36,119.36,0,0,0-24.51-2.19H257.23V247h64.24a78.72,78.72,0,0,0,28.89-4.38A55.22,55.22,0,0,0,370,232.34,50.47,50.47,0,0,0,382,216a56.72,56.72,0,0,0,6.45-17.8M358,178c0,24-13,35.86-38.57,35.86H257.87L287.8,184V141h31.6C345,141,358,153,358,176.87ZM186,348.31h70.69V316.19H186V295.55h56.63l15.74-15.23V263.94H156.09V403.26H259.42V371.14H186Zm117-83.85H273.09V403.13h97.4V368.82H303V264.46ZM507.1,299.29A62.08,62.08,0,0,0,499,285.1a59.17,59.17,0,0,0-12.51-10.84,53.86,53.86,0,0,0-17.93-7.61A111.32,111.32,0,0,0,444,263.94H379.78V369.46l30.44-29.93V297.09h31c26.06,0,39.22,12,39.22,35.35v1c0,24.51-13,36.51-39.22,36.51H379.65v33.67h64.24a95.6,95.6,0,0,0,28.89-4.39,51.23,51.23,0,0,0,31.61-26.57,63.63,63.63,0,0,0,5.93-17.93A98.33,98.33,0,0,0,512,336.31v-6.58c-.13-5.29-.39-10.58-1-15.74q-1.74-7.35-3.87-14.7"
        transform="translate(0 -108.35)"/>
  <style>
    @media (prefers-color-scheme:dark){:root{filter:invert(100%)}}
  </style>
</svg>